<svg width="92" height="23" viewBox="0 0 92 23" fill="none" xmlns="http://www.w3.org/2000/svg">
<path fill-rule="evenodd" clip-rule="evenodd" d="M0 0H92V23H0V0ZM10.5008 2.22632C10.8878 1.36395 12.1122 1.36395 12.4992 2.22632L14.4334 6.53574C14.5926 6.89059 14.9281 7.13435 15.3148 7.17617L20.011 7.68397C20.9508 7.78558 21.3291 8.94999 20.6286 9.58458L17.1278 12.7558C16.8395 13.0169 16.7113 13.4113 16.7911 13.792L17.7593 18.4152C17.9531 19.3404 16.9626 20.0601 16.1426 19.5899L12.0448 17.2404C11.7074 17.0469 11.2926 17.0469 10.9552 17.2404L6.85744 19.5899C6.03743 20.0601 5.04693 19.3404 5.24069 18.4152L6.20894 13.792C6.28867 13.4113 6.16052 13.0169 5.87225 12.7558L2.37143 9.58458C1.67088 8.94999 2.04922 7.78558 2.98898 7.68397L7.68517 7.17617C8.07186 7.13435 8.40737 6.89059 8.56664 6.53574L10.5008 2.22632ZM35.4992 2.22632C35.1122 1.36395 33.8878 1.36395 33.5008 2.22632L31.5666 6.53574C31.4074 6.89059 31.0719 7.13435 30.6852 7.17617L25.989 7.68397C25.0492 7.78558 24.6709 8.94999 25.3714 9.58458L28.8722 12.7558C29.1605 13.0169 29.2887 13.4113 29.2089 13.792L28.2407 18.4152C28.0469 19.3404 29.0374 20.0601 29.8574 19.5899L33.9552 17.2404C34.2926 17.0469 34.7074 17.0469 35.0448 17.2404L39.1426 19.5899C39.9626 20.0601 40.9531 19.3404 40.7593 18.4152L39.7911 13.792C39.7113 13.4113 39.8395 13.0169 40.1278 12.7558L43.6286 9.58458C44.3291 8.94999 43.9508 7.78558 43.011 7.68397L38.3148 7.17617C37.9281 7.13435 37.5926 6.89059 37.4334 6.53574L35.4992 2.22632ZM56.5008 2.22632C56.8878 1.36395 58.1122 1.36395 58.4992 2.22632L60.4334 6.53574C60.5926 6.89059 60.9281 7.13435 61.3148 7.17617L66.011 7.68397C66.9508 7.78558 67.3291 8.94999 66.6286 9.58458L63.1278 12.7558C62.8395 13.0169 62.7113 13.4113 62.7911 13.792L63.7593 18.4152C63.9531 19.3404 62.9626 20.0601 62.1426 19.5899L58.0448 17.2404C57.7074 17.0469 57.2926 17.0469 56.9552 17.2404L52.8574 19.5899C52.0374 20.0601 51.0469 19.3404 51.2407 18.4152L52.2089 13.792C52.2887 13.4113 52.1605 13.0169 51.8722 12.7558L48.3714 9.58458C47.6709 8.94999 48.0492 7.78558 48.989 7.68397L53.6852 7.17617C54.0719 7.13435 54.4074 6.89059 54.5666 6.53574L56.5008 2.22632ZM81.4992 2.22632C81.1122 1.36395 79.8878 1.36395 79.5008 2.22632L77.5666 6.53574C77.4074 6.89059 77.0719 7.13435 76.6852 7.17617L71.989 7.68397C71.0492 7.78558 70.6709 8.94999 71.3714 9.58458L74.8722 12.7558C75.1605 13.0169 75.2887 13.4113 75.2089 13.792L74.2407 18.4152C74.0469 19.3404 75.0374 20.0601 75.8574 19.5899L79.9552 17.2404C80.2926 17.0469 80.7074 17.0469 81.0448 17.2404L85.1426 19.5899C85.9626 20.0601 86.9531 19.3404 86.7593 18.4152L85.7911 13.792C85.7113 13.4113 85.8395 13.0169 86.1278 12.7558L89.6286 9.58458C90.3291 8.94999 89.9508 7.78558 89.011 7.68397L84.3148 7.17617C83.9281 7.13435 83.5926 6.89059 83.4334 6.53574L81.4992 2.22632Z" fill="white"/>
</svg>
